<?xml version="1.0" standalone="no"?>
<!DOCTYPE svg PUBLIC "-//W3C//DTD SVG 20010904//EN"
 "http://www.w3.org/TR/2001/REC-SVG-20010904/DTD/svg10.dtd">
<svg version="1.0" xmlns="http://www.w3.org/2000/svg"
 width="500.000000pt" height="500.000000pt" viewBox="0 0 500.000000 500.000000"
 preserveAspectRatio="xMidYMid meet">
<metadata>
Created by potrace 1.14, written by Peter Selinger 2001-2017
</metadata>
<g transform="translate(0.000000,500.000000) scale(0.100000,-0.100000)"
fill="#000000" stroke="none">
<path d="M3781 4601 c-74 -93 -92 -172 -95 -411 -3 -189 -7 -212 -53 -310 -9
-19 -16 -41 -16 -47 0 -7 -4 -13 -8 -13 -6 0 -16 -24 -24 -59 -2 -8 -9 -17
-15 -21 -7 -4 -12 -11 -12 -16 0 -5 -10 -31 -23 -59 l-24 -50 2 77 c1 43 4 78
7 78 3 0 5 11 5 25 0 14 -2 25 -5 25 -3 0 -5 19 -6 43 -1 41 -5 63 -20 122
-14 55 -66 144 -107 186 l-42 41 -13 -33 c-19 -47 -24 -74 -25 -149 0 -85 5
-115 58 -305 45 -164 63 -265 47 -265 -5 0 -14 -10 -19 -23 -11 -24 -148 -199
-196 -251 -25 -27 -27 -27 -27 -8 0 11 5 24 10 27 6 4 8 10 5 15 -3 5 -1 19 5
31 7 11 13 33 15 47 2 15 8 50 14 77 13 70 10 210 -6 264 -20 67 -57 142 -87
179 -31 36 -46 41 -46 14 0 -10 -4 -22 -9 -27 -31 -32 -46 -211 -27 -320 4
-22 9 -49 11 -60 4 -28 17 -96 22 -120 5 -26 15 -125 15 -150 0 -49 -2 -57
-17 -51 -8 3 -15 2 -15 -2 0 -4 -8 -8 -17 -8 -30 -2 -70 -12 -92 -24 -12 -6
-21 -8 -21 -5 0 3 -10 -1 -22 -9 -38 -27 -51 -21 -32 16 38 74 56 145 59 232
3 98 -11 161 -51 236 -71 129 -197 189 -328 157 -55 -14 -134 -65 -171 -111
-17 -20 -35 -43 -41 -49 -6 -7 -19 -30 -29 -52 -11 -22 -22 -42 -25 -45 -3 -3
-12 -24 -19 -46 -24 -75 -35 -82 -44 -29 -11 59 -27 102 -62 160 -112 188
-304 229 -444 95 -104 -100 -140 -260 -96 -428 16 -62 14 -68 -12 -57 -21 9
-30 12 -61 19 -13 3 -33 8 -45 12 -25 8 -143 7 -177 -2 -14 -3 -33 -6 -42 -6
-10 1 -18 -4 -18 -10 0 -6 -3 -9 -6 -5 -10 9 -81 -30 -121 -66 -39 -35 -82
-97 -90 -131 -2 -11 -6 -46 -6 -77 -2 -57 -6 -61 -42 -40 -5 3 -14 6 -20 8 -5
1 -42 11 -82 23 -126 37 -220 48 -368 45 -178 -3 -233 -15 -312 -63 -29 -19
-48 -41 -66 -79 -14 -29 -22 -53 -18 -53 4 0 8 -15 8 -32 1 -49 9 -73 43 -133
34 -60 136 -157 190 -183 19 -9 37 -19 40 -22 12 -15 177 -82 242 -99 4 -1 22
-7 40 -12 18 -6 44 -12 58 -15 21 -3 61 -13 80 -19 11 -3 146 -20 156 -19 6 1
12 -13 13 -30 1 -17 3 -42 4 -55 1 -14 -6 -28 -17 -35 -11 -6 -29 -19 -40 -29
-11 -9 -23 -17 -28 -17 -33 0 -229 -247 -244 -308 -4 -12 -10 -22 -16 -22 -5
0 -8 -6 -6 -12 1 -7 -3 -23 -10 -35 -7 -13 -11 -23 -8 -23 3 0 -2 -16 -10 -35
-8 -19 -14 -37 -14 -40 0 -3 0 -6 -1 -7 -21 -70 -30 -280 -15 -368 15 -94 18
-110 18 -117 0 -5 4 -16 10 -26 5 -10 12 -30 14 -44 8 -41 55 -103 98 -128 78
-45 215 -63 305 -40 14 4 35 9 47 11 69 13 300 130 344 174 3 3 25 21 50 40
70 54 190 194 190 221 0 5 17 2 38 -7 104 -45 220 -57 385 -40 l68 7 -37 -38
c-94 -98 -185 -252 -189 -320 0 -6 -3 -14 -5 -17 -12 -11 -1 -106 15 -139 9
-20 33 -48 53 -63 29 -23 46 -28 101 -29 36 -1 73 2 81 6 17 9 52 22 61 23 3
1 35 20 71 43 64 41 176 145 205 191 9 12 18 22 22 22 3 0 7 -35 7 -77 1 -233
71 -398 189 -447 74 -31 167 4 217 82 27 42 57 108 63 137 2 11 4 20 5 20 1 0
3 11 5 25 2 14 6 38 10 55 3 16 7 68 8 115 l2 86 85 -86 c76 -78 106 -101 190
-152 33 -20 98 -41 133 -44 16 -1 31 -5 34 -8 3 -2 25 4 49 14 24 11 44 17 44
15 0 -6 47 39 47 45 0 3 8 22 17 43 25 57 14 146 -30 242 -25 53 -77 135 -86
135 -5 0 -8 6 -8 14 0 8 -4 16 -8 18 -5 2 -26 22 -47 46 l-38 43 69 -7 c130
-14 258 -6 336 22 57 20 127 65 134 87 3 9 9 17 14 17 10 0 24 52 25 95 5 127
-188 248 -435 273 l-75 7 65 46 c168 120 277 278 271 393 -1 26 1 28 26 22 87
-21 109 -36 131 -89 28 -67 71 -120 143 -178 20 -16 39 -26 43 -22 3 3 6 2 6
-4 0 -9 27 -21 60 -27 3 -1 11 -5 18 -10 22 -14 120 -8 157 10 36 17 84 66 86
87 1 7 3 23 4 37 9 75 -58 166 -155 213 -110 52 -272 55 -341 6 -27 -19 -28
-19 -119 16 -51 18 -102 43 -114 54 -37 35 -86 49 -156 44 -130 -8 -140 -8
-140 -3 0 3 -18 6 -40 7 -29 2 -50 11 -75 34 -19 18 -35 35 -35 38 0 3 15 6
33 7 17 1 57 4 87 8 57 8 101 12 210 21 36 3 90 7 120 10 51 4 275 8 347 6 25
-1 38 -9 59 -39 15 -21 42 -49 61 -62 18 -14 44 -33 56 -44 25 -21 128 -69
172 -81 121 -31 238 -15 300 42 31 27 65 79 58 87 -3 3 -2 6 4 6 18 0 7 94
-16 138 -11 22 -34 49 -51 59 -16 9 -30 21 -30 24 0 4 -26 18 -57 30 -74 29
-219 35 -294 13 -28 -9 -57 -13 -65 -10 -31 12 -93 -22 -147 -81 l-30 -32
-146 -1 c-152 -1 -245 -5 -346 -16 -33 -3 -78 -8 -100 -10 -49 -5 -111 -14
-200 -29 -16 -3 -44 -8 -60 -10 -21 -4 -51 4 -95 23 l-63 29 57 22 c31 11 60
21 65 21 4 0 43 18 86 41 43 23 83 42 89 44 6 1 25 8 41 14 17 7 35 14 40 15
6 1 16 5 22 9 12 8 181 65 213 72 8 2 16 4 18 5 1 2 5 3 10 4 4 1 18 6 30 10
17 6 30 3 45 -12 19 -17 44 -30 70 -37 4 -2 8 -3 10 -5 1 -1 18 -3 37 -5 19
-1 35 -3 35 -4 0 -6 56 -11 115 -11 73 0 89 2 108 13 6 5 12 5 12 1 0 -3 7 -1
15 6 8 7 15 9 15 6 0 -8 57 31 82 56 10 10 18 23 18 28 0 6 4 10 8 10 5 0 9 6
10 13 0 6 3 31 6 55 9 68 -30 124 -106 155 -74 31 -260 3 -311 -47 -6 -7 -28
-21 -47 -31 -49 -27 -79 -55 -98 -90 -9 -16 -16 -33 -17 -37 0 -10 -14 -22
-28 -24 -32 -7 -54 -13 -78 -22 -15 -6 -30 -8 -33 -5 -3 4 -6 1 -6 -5 0 -7 -3
-11 -7 -10 -15 4 -113 -26 -113 -34 0 -5 -4 -7 -8 -4 -5 3 -20 -1 -35 -9 -18
-9 -29 -10 -33 -3 -4 6 -2 13 3 17 14 9 36 87 29 100 -4 6 -2 11 4 11 6 0 8 5
4 11 -4 6 -8 23 -9 38 -7 71 -79 164 -169 219 -19 11 -18 12 14 10 19 -1 41 1
48 6 6 4 12 3 12 -2 0 -9 59 -7 68 2 2 3 14 1 27 -4 13 -5 26 -6 29 -2 4 3 26
7 49 8 40 2 62 6 117 19 14 3 30 7 36 9 7 1 19 8 28 15 9 7 16 11 16 7 0 -3
18 6 40 20 24 16 40 34 38 43 -2 9 -34 28 -78 44 -63 25 -90 29 -170 30 -52 0
-115 -6 -140 -13 -25 -7 -52 -14 -60 -15 -15 -2 -122 -48 -152 -65 -29 -17
-21 0 28 54 69 78 69 78 108 129 20 26 36 50 36 53 0 14 31 33 71 45 67 18 93
22 309 44 76 7 178 33 208 53 12 8 22 11 22 8 0 -7 86 49 108 70 24 24 10 35
-80 64 -40 12 -156 15 -209 5 -19 -3 -42 -7 -51 -9 -10 -1 -21 -5 -24 -9 -4
-4 -13 -7 -20 -7 -18 0 -117 -47 -175 -82 -25 -15 -49 -28 -52 -28 -3 0 13 37
37 83 23 45 59 125 80 177 21 52 55 120 75 150 42 61 91 161 95 194 2 11 6 28
9 36 34 89 34 305 0 390 -4 8 -7 19 -7 24 -2 23 -26 13 -55 -23z m-1774 -1431
c23 -58 53 -145 68 -194 26 -86 26 -91 9 -103 -14 -11 -20 -11 -25 -1 -7 13
-69 192 -74 212 -6 32 -18 74 -26 96 -4 14 -11 47 -15 74 -5 43 -4 48 8 35 8
-8 33 -61 55 -119z m587 108 c-4 -7 -9 -24 -11 -39 -3 -28 -77 -242 -110 -316
-15 -35 -22 -41 -38 -37 -11 4 -21 7 -22 8 -3 3 63 180 81 221 8 17 24 52 36
80 28 62 49 95 62 95 5 0 6 -5 2 -12z m1715 -338 c15 -8 15 -9 0 -15 -9 -3
-29 -4 -45 -1 -16 2 -44 5 -61 5 -38 1 -44 18 -11 30 22 8 88 -2 117 -19z
m-2739 -144 c0 2 11 -3 25 -12 14 -9 25 -13 25 -10 0 4 10 1 23 -6 12 -7 24
-13 27 -13 3 -1 25 -11 49 -23 25 -12 51 -22 58 -22 7 0 13 -5 13 -11 0 -5 5
-7 10 -4 6 3 10 1 10 -5 0 -6 3 -9 8 -6 13 8 45 -22 39 -39 -8 -20 -30 -19
-76 5 -21 10 -41 16 -45 13 -3 -4 -6 -1 -6 5 0 6 -13 13 -30 17 -16 4 -30 11
-30 17 0 6 -3 9 -6 5 -6 -5 -127 55 -181 90 -38 25 -16 33 37 13 28 -10 50
-16 50 -14z m1519 -47 c-13 -10 -28 -18 -34 -17 -5 1 -23 -4 -40 -12 -34 -14
-49 -20 -120 -44 -48 -17 -62 -21 -104 -30 -10 -2 -35 -9 -55 -14 -31 -9 -38
-8 -46 8 -6 10 -7 21 -3 23 8 4 107 38 128 44 6 1 17 4 25 6 8 2 22 7 30 10 8
3 35 11 60 18 43 11 59 14 116 23 14 3 28 7 31 10 3 2 12 2 20 -1 13 -5 11 -9
-8 -24z m1586 -221 c35 -18 88 -69 80 -76 -7 -7 -175 80 -175 91 0 13 61 3 95
-15z m-2827 -239 c3 -15 -32 -36 -69 -43 -8 -1 -23 -5 -34 -9 -11 -3 -33 -9
-50 -12 -38 -8 -60 -13 -60 -15 0 -3 -50 -13 -125 -25 -25 -4 -53 -9 -62 -11
-21 -3 -35 14 -16 21 7 2 27 10 43 16 35 14 44 17 65 21 8 2 20 6 25 10 13 8
74 20 78 16 2 -2 11 3 20 10 9 8 21 11 27 7 5 -3 10 -2 10 4 0 5 8 8 18 6 9
-1 23 2 30 8 6 5 12 6 12 3 0 -4 8 -3 17 3 26 14 67 8 71 -10z m917 0 c17 -7
32 -13 35 -14 3 -1 19 -7 35 -14 17 -8 39 -17 50 -21 11 -4 64 -29 118 -56
202 -98 24 -61 -233 48 -14 6 -31 12 -39 14 -8 1 -21 9 -29 18 -12 12 -13 18
-3 30 7 8 18 13 24 11 7 -3 26 -10 42 -16z m1593 -163 c32 -16 67 -56 67 -73
0 -21 -18 -12 -75 38 -55 49 -52 66 8 35z m-2248 -104 c0 -28 -139 -332 -152
-332 -5 0 -7 -4 -4 -9 3 -4 -3 -16 -13 -25 -18 -16 -18 -16 -16 11 5 44 49
162 122 325 23 50 29 56 45 47 10 -5 18 -13 18 -17z m379 -45 c46 -143 92
-367 76 -367 -23 0 -143 384 -131 416 12 32 35 12 55 -49z m1053 1 c-16 -19
-72 -50 -72 -40 0 17 41 52 62 52 15 0 18 -3 10 -12z m-342 -207 c-1 -9 -74
-41 -93 -41 -20 0 -22 15 -5 34 11 12 98 18 98 7z m185 -277 c39 -3 82 -6 98
-7 15 -1 27 -4 27 -7 0 -3 12 -7 28 -8 15 -1 38 -5 52 -8 14 -3 36 -7 50 -10
58 -11 92 -26 79 -35 -7 -4 -16 -6 -19 -4 -6 4 -161 16 -232 19 -21 0 -38 4
-38 7 0 3 -19 5 -42 4 -24 -1 -47 1 -53 4 -5 3 -32 6 -60 7 -27 1 -50 3 -50 4
0 1 -13 3 -30 5 -16 1 -33 3 -37 4 -13 2 -9 29 5 34 13 5 109 1 222 -9z m-307
-258 c13 -12 71 -68 130 -126 205 -200 296 -330 136 -193 -46 38 -255 243
-250 243 2 0 -17 21 -40 47 -30 32 -40 49 -32 54 14 9 23 4 56 -25z m-607 3
c18 -9 15 -16 -48 -92 -136 -163 -220 -253 -229 -244 -8 7 121 193 191 274 5
7 21 26 35 43 28 34 25 33 51 19z m320 -59 c2 -14 6 -30 9 -32 5 -7 11 -132
14 -325 3 -173 1 -213 -9 -213 -8 0 -14 8 -13 17 0 10 -3 34 -6 53 -5 33 -11
110 -21 289 -2 40 -7 76 -9 79 -3 2 -1 13 5 23 5 11 6 19 2 19 -5 0 -9 23 -9
50 0 42 2 50 18 50 10 0 19 -4 19 -10z"/>
</g>
</svg>
